PathFileType	4	(X/Y/Z)	/Users/itak/Documents/Research/Walk-IL/dataset/trc/00325_00011.trc
DataRate	CameraRate	NumFrames	NumMarkers	Units	OrigDataRate	OrigDataStartFrame	OrigNumFrames
100.000000	100.000000	4	54	mm	100.000000	324	433
Frame#	Time	RPSI			LPSI			L3			STRN			T10			C7			CLAV			RBAK			LBAK			LSHO			LUPA			LAEL			LAOL			LWPS			LFRA			LIFD			LHPS			LHTS			RSHO			RUPA			RAEL			RAOL			RWTS			RWPS			RFRA			RIFD			RHTS			RHPS			RBHD			LFHD			RFHD			LBHD			LHIP			RHIP			RASI			LASI			LKNE			LTHI			LANK			LTIP			LTOE			LMT1			LMT5			LHEE			RKNE			RANK			RTIP			RTOE			RMT1			RMT5			RHEE			LWTS			RTHI			*53			
		X1	Y1	Z1	X2	Y2	Z2	X3	Y3	Z3	X4	Y4	Z4	X5	Y5	Z5	X6	Y6	Z6	X7	Y7	Z7	X8	Y8	Z8	X9	Y9	Z9	X10	Y10	Z10	X11	Y11	Z11	X12	Y12	Z12	X13	Y13	Z13	X14	Y14	Z14	X15	Y15	Z15	X16	Y16	Z16	X17	Y17	Z17	X18	Y18	Z18	X19	Y19	Z19	X20	Y20	Z20	X21	Y21	Z21	X22	Y22	Z22	X23	Y23	Z23	X24	Y24	Z24	X25	Y25	Z25	X26	Y26	Z26	X27	Y27	Z27	X28	Y28	Z28	X29	Y29	Z29	X30	Y30	Z30	X31	Y31	Z31	X32	Y32	Z32	X33	Y33	Z33	X34	Y34	Z34	X35	Y35	Z35	X36	Y36	Z36	X37	Y37	Z37	X38	Y38	Z38	X39	Y39	Z39	X40	Y40	Z40	X41	Y41	Z41	X42	Y42	Z42	X43	Y43	Z43	X44	Y44	Z44	X45	Y45	Z45	X46	Y46	Z46	X47	Y47	Z47	X48	Y48	Z48	X49	Y49	Z49	X50	Y50	Z50	X51	Y51	Z51	X52	Y52	Z52	X53	Y53	Z53	X54	Y54	Z54	

325	3.24	457.7388000488281	960.5903930664062	140.0555419921875	457.6655883789062	968.5362548828125	10.54216480255127	453.0658264160156	1027.913330078125	69.69119262695312	683.0258178710938	1217.2822265625	63.47731018066406	444.5481567382812	1147.184936523438	53.53353881835938	483.23828125	1395.12890625	27.83208847045898	638.5695190429688	1341.540161132812	50.3477668762207	432.882568359375	1260.1162109375	96.88869476318359	481.4840698242188	1352.210327148438	-73.81800079345703	571.0903930664062	1370.657470703125	-119.4604263305664	580.3590087890625	1253.483276367188	-189.9203948974609	666.328369140625	1069.552490234375	-219.8007659912109	606.7592163085938	1028.78857421875	-173.3052520751953	841.4037475585938	881.2286376953125	-226.1645812988281	727.9371337890625	984.172607421875	-229.0588073730469	964.358642578125	787.97119140625	-165.6839294433594	880.044921875	823.580078125	-220.6067352294922	920.7444458007812	857.5612182617188	-185.5881652832031	526.6336669921875	1391.1982421875	195.9903717041016	501.976806640625	1332.744384765625	258.8898010253906	450.16357421875	1071.673828125	295.3450927734375	444.2381896972656	1062.953857421875	201.9056243896484	519.9088745117188	826.0225219726562	306.9506225585938	459.7864685058594	825.13134765625	353.4552307128906	455.9622192382812	1003.75390625	316.5234680175781	490.827880859375	655.44970703125	325.2901306152344	513.68798828125	718.9957275390625	327.54736328125	455.2657775878906	740.276611328125	359.1447143554688	506.3856506347656	1588.769165039062	111.6531219482422	678.494873046875	1628.365234375	1.049861550331116	663.9993286132812	1627.091918945312	101.1975021362305	500.9790954589844	1581.148071289062	-32.77347183227539	544.7421875	916.287353515625	-96.03983306884766	543.7687377929688	911.7318725585938	246.5088500976562	643.53662109375	949.8187866210938	200.9522705078125	665.0925903320312	944.210205078125	-38.62595748901367	602.2407836914062	457.4314880371094	-48.34577560424805	602.6871948242188	597.756103515625	-70.24286651611328	474.4413146972656	46.54621887207031	1.79814887046814	543.0354614257812	239.9013214111328	-36.89131546020508	683.6626586914062	36.0485954284668	53.22983169555664	615.4310913085938	28.40936088562012	96.49645233154297	598.1668701171875	35.7763671875	-15.34827136993408	444.461669921875	47.61782455444336	70.78337097167969	743.208251953125	483.7421875	226.1849670410156	648.8784790039062	70.69599914550781	201.4627380371094	742.5944213867188	364.0308837890625	218.7128448486328	841.0698852539062	53.43006134033203	164.4849853515625	788.1944580078125	47.60972213745117	118.8685836791992	744.3341064453125	45.32814025878906	227.1736145019531	601.5933837890625	79.978515625	151.7683563232422	865.0980224609375	912.4949340820312	-169.097900390625	675.870361328125	730.38330078125	253.1090545654297	nan	nan	nan	
326	3.25	465.2344055175781	960.0440063476562	141.0628051757812	464.2794494628906	967.8748168945312	11.53448390960693	459.4258117675781	1027.396728515625	70.50469970703125	690.320068359375	1216.58642578125	63.36035919189453	451.6874084472656	1146.690185546875	54.26594924926758	490.5888671875	1394.45654296875	27.8834056854248	645.8817138671875	1340.807739257812	50.17612075805664	440.5056762695312	1259.833374023438	97.26394653320312	488.5304870605469	1351.28125	-73.84104156494141	578.0369873046875	1369.663330078125	-119.4915618896484	588.2633056640625	1252.83984375	-190.0279693603516	677.8244018554688	1070.683959960938	-220.6296844482422	618.9368896484375	1028.520385742188	-174.6017761230469	857.7357177734375	886.9562377929688	-226.5551910400391	741.5718994140625	986.9888916015625	-229.7978820800781	982.6136474609375	796.795654296875	-165.2831726074219	897.71875	830.1782836914062	-220.7161865234375	937.3931274414062	865.3445434570312	-185.4179077148438	534.47900390625	1390.964965820312	195.9486083984375	509.473876953125	1333.113525390625	259.0171508789062	454.4088745117188	1072.661376953125	295.115966796875	449.0269775390625	1063.967163085938	201.6230926513672	520.52734375	826.2742919921875	308.0290832519531	459.7590637207031	826.1550903320312	353.6757202148438	459.0476379394531	1004.78173828125	316.4305114746094	488.5091552734375	656.1233520507812	326.3536071777344	511.1460266113281	717.9659423828125	326.5277404785156	453.9829711914062	741.45068359375	359.6069030761719	513.8359985351562	1587.997802734375	111.4390182495117	685.8238525390625	1627.668823242188	0.610310435295105	671.4176635742188	1626.4697265625	100.8168563842773	508.2794799804688	1580.247924804688	-32.95824432373047	551.0557250976562	915.5906982421875	-95.35675048828125	551.8314819335938	911.1290283203125	247.0856475830078	651.4929809570312	949.2296142578125	201.0893402099609	671.6232299804688	943.5020141601562	-38.52716064453125	606.4033203125	456.8829040527344	-47.80126190185547	607.6263427734375	597.0840454101562	-69.65598297119141	474.6282043457031	46.81035232543945	2.308434247970581	545.113525390625	239.7585754394531	-36.49885559082031	683.8670043945312	35.92231369018555	53.33943176269531	615.3854370117188	27.81729125976562	96.98007202148438	598.24853515625	35.91901779174805	-15.18404293060303	444.8350219726562	48.10589599609375	71.35695648193359	748.4869995117188	481.1307373046875	225.5426177978516	675.8651733398438	64.70158386230469	202.0624542236328	753.3450927734375	362.2378845214844	218.6020202636719	868.5075073242188	56.88697052001953	164.9466705322266	815.9927368164062	48.32157516479492	119.4045104980469	772.443359375	44.04783248901367	227.7491912841797	627.9058837890625	71.30370330810547	152.4372406005859	879.9911499023438	918.4083862304688	-168.9944458007812	682.322021484375	728.8556518554688	253.3890380859375	nan	nan	nan	
327	3.26	472.7729797363281	959.3984375	142.0553741455078	471.0229187011719	967.1241455078125	12.5389518737793	465.8678588867188	1026.796020507812	71.35574340820312	697.5828247070312	1215.862182617188	63.32976150512695	458.7798461914062	1146.095947265625	55.05472183227539	497.8356628417969	1393.6923828125	28.01578903198242	653.1295166015625	1340.036376953125	50.0756721496582	448.1348571777344	1259.442749023438	97.74826049804688	495.5071411132812	1350.255004882812	-73.78025817871094	584.905029296875	1368.607177734375	-119.4513549804688	596.0283203125	1252.15478515625	-190.0821075439453	689.0499877929688	1071.790893554688	-221.3024597167969	630.7994384765625	1028.265625	-175.7882385253906	873.3737182617188	892.472412109375	-226.8153839111328	754.7667846679688	989.739990234375	-230.3748474121094	999.9529418945312	805.257568359375	-164.8416595458984	914.5961303710938	836.5322265625	-220.7386169433594	953.220947265625	872.7102661132812	-185.0608367919922	542.2638549804688	1390.66796875	195.9824066162109	516.978759765625	1333.3779296875	259.2272033691406	459.0298156738281	1073.511352539062	294.95849609375	454.0972595214844	1064.856201171875	201.4097595214844	521.5676879882812	826.4431762695312	309.0973205566406	460.2835693359375	827.1598510742188	353.9846801757812	462.5969848632812	1005.703247070312	316.4065246582031	486.4364013671875	656.769287109375	327.3489685058594	508.9445190429688	716.973876953125	325.4933471679688	453.1278686523438	742.6315307617188	360.11474609375	521.1967163085938	1587.159545898438	111.2665252685547	693.0751342773438	1626.89208984375	0.1869926750659943	678.7683715820312	1625.77978515625	100.4431838989258	515.4827270507812	1579.280029296875	-33.09017562866211	557.4888305664062	914.8555297851562	-94.67765808105469	559.9480590820312	910.40283203125	247.6792907714844	659.4918823242188	948.573486328125	201.2920837402344	678.2860107421875	942.8330078125	-38.39426422119141	610.690673828125	456.30859375	-47.23788070678711	612.7244873046875	596.39990234375	-69.08130645751953	474.840087890625	47.11520385742188	2.846678256988525	547.236572265625	239.6240844726562	-36.08849334716797	684.0748901367188	35.80490493774414	53.43173599243164	615.4029541015625	27.29644203186035	97.41812133789062	598.3328247070312	36.07120132446289	-15.01277446746826	445.1884765625	48.70586776733398	71.95357513427734	753.3433227539062	478.2606811523438	224.9424743652344	702.1582641601562	59.55405426025391	202.473388671875	763.5975341796875	360.4703063964844	218.4279632568359	894.8174438476562	60.87408828735352	165.1766815185547	842.8085327148438	49.75874710083008	119.6901626586914	799.5946044921875	43.4652099609375	228.1168212890625	653.708740234375	63.66304016113281	152.87353515625	894.1875	923.970703125	-168.7326049804688	688.6014404296875	727.0963745117188	253.7248382568359	nan	nan	nan	
328	3.27	480.3690795898438	958.6563110351562	143.0447387695312	477.8973388671875	966.3010864257812	13.55921173095703	472.4439697265625	1026.104858398438	72.25199890136719	704.8245849609375	1215.123168945312	63.3852424621582	465.8272705078125	1145.401611328125	55.88372039794922	504.9797058105469	1392.844970703125	28.23735427856445	660.3150024414062	1339.241577148438	50.04964065551758	455.7610778808594	1258.941162109375	98.34457397460938	502.4159240722656	1349.145874023438	-73.62826538085938	591.6995239257812	1367.508056640625	-119.3321990966797	603.6640625	1251.4443359375	-190.0741882324219	699.9815673828125	1072.86376953125	-221.8176879882812	642.313720703125	1028.028076171875	-176.8503112792969	888.2791748046875	897.7144775390625	-226.933349609375	767.48876953125	992.3832397460938	-230.7880706787109	1016.383361816406	813.26904296875	-164.3563995361328	930.6624145507812	842.595947265625	-220.6759033203125	968.2076416015625	879.5946655273438	-184.5295715332031	549.9822387695312	1390.306640625	196.0987701416016	524.4840698242188	1333.524169921875	259.5165100097656	464.0079956054688	1074.20361328125	294.8735961914062	459.4562377929688	1065.599975585938	201.2662658691406	522.9725952148438	826.4619140625	310.0955505371094	461.3464965820312	828.1148681640625	354.3782653808594	466.5997619628906	1006.494506835938	316.4607238769531	484.6399230957031	657.3513793945312	328.25537109375	507.2901916503906	716.1856689453125	324.7354125976562	452.71533203125	743.785888671875	360.6635131835938	528.4817504882812	1586.272338867188	111.1391830444336	700.2490844726562	1626.043701171875	-0.2111203074455261	686.0555419921875	1625.030883789062	100.0773162841797	522.5967407226562	1578.255859375	-33.17063522338867	564.0529174804688	914.1038818359375	-93.99446105957031	568.1199951171875	909.5575561523438	248.2990570068359	667.5252075195312	947.8402709960938	201.5727691650391	685.10302734375	942.2113037109375	-38.22301864624023	615.0533447265625	455.7264099121094	-46.69038772583008	617.9370727539062	595.7212524414062	-68.54046630859375	475.0601501464844	47.46906661987305	3.386449337005615	549.3739013671875	239.5129241943359	-35.67721939086914	684.2841796875	35.69553375244141	53.50372695922852	615.506591796875	26.90778160095215	97.76528930664062	598.4221801757812	36.22709274291992	-14.84005832672119	445.5289306640625	49.41543197631836	72.55372619628906	757.8433837890625	475.2433166503906	224.4075927734375	727.506591796875	55.21598434448242	202.6717681884766	773.3506469726562	358.7718200683594	218.2152709960938	919.8543090820312	65.31792449951172	165.1891021728516	868.4652709960938	51.87464904785156	119.7216110229492	825.5919189453125	43.54819869995117	228.2595520019531	678.7546997070312	57.09991836547852	153.03125	907.7119140625	929.1690673828125	-168.3459320068359	694.7784423828125	725.16845703125	254.1345672607422	nan	nan	nan	
